<svg width="0" height="0" class="hidden">
  <symbol viewBox="0 0 54 42" fill="none" xmlns="http://www.w3.org/2000/svg" id="menu">
    <path fill-rule="evenodd" clip-rule="evenodd" d="M54 3C54 3.79565 53.6839 4.55871 53.1213 5.12132C52.5587 5.68393 51.7956 6 51 6H3C2.20435 6 1.44129 5.68393 0.87868 5.12132C0.31607 4.55871 0 3.79565 0 3C0 2.20435 0.31607 1.44129 0.87868 0.87868C1.44129 0.31607 2.20435 0 3 0H51C51.7956 0 52.5587 0.31607 53.1213 0.87868C53.6839 1.44129 54 2.20435 54 3ZM54 21C54 21.7956 53.6839 22.5587 53.1213 23.1213C52.5587 23.6839 51.7956 24 51 24H3C2.20435 24 1.44129 23.6839 0.87868 23.1213C0.31607 22.5587 0 21.7956 0 21C0 20.2044 0.31607 19.4413 0.87868 18.8787C1.44129 18.3161 2.20435 18 3 18H51C51.7956 18 52.5587 18.3161 53.1213 18.8787C53.6839 19.4413 54 20.2044 54 21ZM51 42C51.7956 42 52.5587 41.6839 53.1213 41.1213C53.6839 40.5587 54 39.7956 54 39C54 38.2044 53.6839 37.4413 53.1213 36.8787C52.5587 36.3161 51.7956 36 51 36H3C2.20435 36 1.44129 36.3161 0.87868 36.8787C0.31607 37.4413 0 38.2044 0 39C0 39.7956 0.31607 40.5587 0.87868 41.1213C1.44129 41.6839 2.20435 42 3 42H51Z" fill="white"/>
  </symbol>


  <!-- <symbol viewBox="0 0 538 512" fill="none" xmlns="http://www.w3.org/2000/svg" id="menu">
    <g clip-path="url(#clip0_115266_8)">
    <path fill-rule="evenodd" clip-rule="evenodd" d="M483.84 435.43C483.84 449.536 470.579 460.8 455.757 460.8H375.117C371.749 460.879 368.4 460.28 365.269 459.037C362.138 457.794 359.29 455.933 356.894 453.565C354.497 451.198 352.602 448.372 351.322 445.256C350.041 442.14 349.401 438.799 349.44 435.43V358.63C349.389 355.237 350.017 351.868 351.287 348.721C352.557 345.574 354.444 342.713 356.837 340.306C359.229 337.899 362.079 335.995 365.218 334.706C368.358 333.417 371.723 332.769 375.117 332.8H455.757C470.605 332.8 483.84 344.525 483.84 358.63V435.43ZM455.757 281.6H375.117C330.573 281.6 295.68 316.211 295.68 358.63V435.43C295.68 477.85 330.573 512 375.117 512H455.757C500.301 512 537.6 477.85 537.6 435.43V358.63C537.6 316.211 500.301 281.6 455.757 281.6ZM188.16 435.43C188.16 449.536 174.899 460.8 160.077 460.8H79.4368C76.0691 460.879 72.72 460.28 69.5891 459.037C66.4583 457.794 63.6098 455.933 61.2135 453.565C58.8173 451.198 56.9224 448.372 55.6418 445.256C54.3612 442.14 53.7213 438.799 53.76 435.43V358.63C53.7086 355.237 54.3366 351.868 55.6068 348.721C56.8771 345.574 58.764 342.713 61.1566 340.306C63.5491 337.899 66.399 335.995 69.5383 334.706C72.6777 333.417 76.0432 332.769 79.4368 332.8H160.077C174.925 332.8 188.16 344.525 188.16 358.63V435.43ZM160.077 281.6H79.4368C34.8928 281.6 0 316.211 0 358.63V435.43C0 477.85 34.8928 512 79.4368 512H160.077C204.621 512 241.92 477.85 241.92 435.43V358.63C241.92 316.211 204.621 281.6 160.077 281.6ZM483.84 153.83C483.84 167.936 470.579 179.2 455.757 179.2H375.117C371.749 179.279 368.4 178.68 365.269 177.437C362.138 176.194 359.29 174.333 356.894 171.965C354.497 169.598 352.602 166.772 351.322 163.656C350.041 160.54 349.401 157.199 349.44 153.83V77.0304C349.389 73.6371 350.017 70.2678 351.287 67.1208C352.557 63.9737 354.444 61.1126 356.837 58.7057C359.229 56.2989 362.079 54.3949 365.218 53.1059C368.358 51.8169 371.723 51.1689 375.117 51.2H455.757C470.605 51.2 483.84 62.9248 483.84 77.0304V153.83ZM455.757 0H375.117C330.573 0 295.68 34.6112 295.68 77.0304V153.83C295.68 196.25 330.573 230.4 375.117 230.4H455.757C500.301 230.4 537.6 196.25 537.6 153.83V77.0304C537.6 34.6112 500.301 0 455.757 0ZM188.16 153.83C188.16 167.936 174.899 179.2 160.077 179.2H79.4368C76.0691 179.279 72.72 178.68 69.5891 177.437C66.4583 176.194 63.6098 174.333 61.2135 171.965C58.8173 169.598 56.9224 166.772 55.6418 163.656C54.3612 160.54 53.7213 157.199 53.76 153.83V77.0304C53.7086 73.6371 54.3366 70.2678 55.6068 67.1208C56.8771 63.9737 58.764 61.1126 61.1566 58.7057C63.5491 56.2989 66.399 54.3949 69.5383 53.1059C72.6777 51.8169 76.0432 51.1689 79.4368 51.2H160.077C174.925 51.2 188.16 62.9248 188.16 77.0304V153.83ZM160.077 0H79.4368C34.8928 0 0 34.6112 0 77.0304V153.83C0 196.25 34.8928 230.4 79.4368 230.4H160.077C204.621 230.4 241.92 196.25 241.92 153.83V77.0304C241.92 34.6112 204.621 0 160.077 0Z" fill="black"/>
    </g>
    <defs>
    <clipPath id="clip0_115266_8">
    <rect width="537.6" height="512" fill="white"/>
    </clipPath>
    </defs>
  </symbol> -->

  <symbol viewBox="0 0 20 20" fill="none" xmlns="http://www.w3.org/2000/svg" id="success">
    <path d="M10 0C4.486 0 0 4.486 0 10C0 15.514 4.486 20 10 20C15.514 20 20 15.514 20 10C20 4.486 15.514 0 10 0ZM8.001 14.413L4.99545 11.4139C4.6047 11.024 4.60391 10.3912 4.99369 10.0003C5.38371 9.60918 6.01701 9.60846 6.40793 9.9987L7.999 11.587L12.586 7C12.9765 6.60953 13.6095 6.60953 14 7C14.3905 7.39047 14.3905 8.02353 14 8.414L8.001 14.413Z" fill="#2FAB73"/>
  </symbol>

  <symbol viewBox="0 0 120 113" fill="none" xmlns="http://www.w3.org/2000/svg" id="currency">
    <path d="M115.936 94.1348V82.6425H107.561V40.4421H115.936V19.631H108.969L60 0L11.0311 19.631H4.0643V40.4421H12.4385V82.6423H4.0643V94.1346H0V112.758H120V94.1346H115.936V94.1348ZM60 7.68258L89.8055 19.6313H30.1945L60 7.68258ZM11.1952 33.3115V26.7621H108.805V33.3115H107.561H88.8799H82.0809H63.3994H56.6004H37.9188H31.1198H12.4385H11.1952ZM100.431 40.4421V82.6423H96.0108V40.4421H100.431ZM88.8799 40.4421V82.6423H82.0809V40.4421H88.8799ZM74.9503 40.4421V82.6423H70.5305V40.4421H74.9503ZM63.3996 40.4421V82.6423H56.6006V40.4421H63.3996ZM49.4698 40.4421V82.6423H45.0499V40.4421H49.4698ZM37.9188 40.4421V82.6423H31.1198V40.4421H37.9188ZM23.9892 40.4421V82.6423H19.5694V40.4421H23.9892ZM11.1952 89.7734H12.4385H31.1201H37.9191H56.6006H63.3996H82.0812H88.8801H107.562H108.805V94.1348H11.1952V89.7734ZM112.869 105.627H7.13086V101.265H112.869V105.627Z" fill="black"/>
  </symbol>

  <symbol viewBox="0 0 26 26" fill="none" xmlns="http://www.w3.org/2000/svg" id="close">
    <path fill-rule="evenodd" clip-rule="evenodd" d="M10.3481 13L0.423828 22.9242L3.07548 25.576L12.9998 15.6517L22.9241 25.576L25.5758 22.9242L15.6516 13L25.5756 3.07597L22.9238 0.424316L12.9998 10.3482L3.07578 0.424316L0.424127 3.07597L10.3481 13Z" fill="white"/>
  </symbol>

  <symbol viewBox="0 0 21 29" fill="none" xmlns="http://www.w3.org/2000/svg" id="letter">
    <path d="M17.4114 0.825391L1.18914 10.2758C0.505698 10.6739 0.105247 11.5644 0.143961 12.5994C0.18274 13.6345 0.652897 14.6057 1.37098 15.1338L7.04222 19.3048L11.6627 12.2824C11.8753 11.9593 12.2679 11.9583 12.5396 12.2804C12.8112 12.6024 12.859 13.1255 12.6464 13.4487L8.02588 20.4711L11.8097 27.5105C12.2888 28.4019 13.0648 28.9083 13.8347 28.832C14.6062 28.7556 15.2138 28.1106 15.4234 27.1527L20.4058 4.37567C20.6327 3.33865 20.3588 2.20272 19.6912 1.41114C19.0236 0.619554 18.15 0.39503 17.4114 0.825391Z" fill="white"/>
  </symbol>

  <symbol viewBox="0 0 29 38" fill="none" xmlns="http://www.w3.org/2000/svg" id='email'>
    <path d="M18.7798 19.1104L28.1806 27.0882V10.7957L18.7798 19.1104Z" fill="#9092B0"/>
    <path d="M0.29538 10.7957V27.0882L9.69619 19.1104L0.29538 10.7957Z" fill="#9092B0"/>
    <path d="M26.4378 6.05127H2.0382C1.16853 6.05127 0.478368 6.92158 0.347656 8.04222L14.238 20.3272L28.1283 8.04222C27.9976 6.92158 27.3075 6.05127 26.4378 6.05127Z" fill="#9092B0"/>
    <path d="M17.1831 20.5236L14.717 22.704C14.5706 22.8327 14.4051 22.8959 14.2378 22.8959C14.0705 22.8959 13.9049 22.8327 13.7585 22.704L11.2924 20.5212L0.350922 29.8116C0.485119 30.9229 1.17179 31.7861 2.03798 31.7861H26.4376C27.3037 31.7861 27.9904 30.9229 28.1246 29.8116L17.1831 20.5236Z" fill="#9092B0"/>
  </symbol>

  <symbol viewBox="0 0 25 26" fill="none" xmlns="http://www.w3.org/2000/svg" id="next">
    <path d="M0 9H15.1579V1.60858C15.1579 1.41552 15.4044 1.33452 15.5189 1.48994L24 13L15.5189 24.5101C15.4044 24.6655 15.1579 24.5845 15.1579 24.3914V17H0"/>
  </symbol>


  <symbol viewBox="0 0 25 26" fill="none" xmlns="http://www.w3.org/2000/svg" id="prev">
    <path d="M25 17H9.84211V24.3914C9.84211 24.5845 9.59562 24.6655 9.48109 24.5101L1 13L9.48109 1.48994C9.59562 1.33452 9.84211 1.41552 9.84211 1.60858V9H25"/>
  </symbol>
</svg>